<svg width="25" height="24" viewBox="0 0 25 24" fill="none" xmlns="http://www.w3.org/2000/svg">
<path d="M19.5315 14.5024C19.2137 14.8104 19.0677 15.2558 19.1401 15.6926L20.2309 21.7291C20.3229 22.2408 20.107 22.7585 19.6788 23.0542C19.2591 23.361 18.7009 23.3978 18.2432 23.1524L12.8091 20.3181C12.6202 20.2175 12.4104 20.1635 12.1956 20.1574H11.8631C11.7478 20.1746 11.6349 20.2114 11.5319 20.2678L6.09652 23.1156C5.82782 23.2505 5.52354 23.2984 5.22539 23.2505C4.49904 23.1131 4.0144 22.4211 4.13341 21.6911L5.22539 15.6545C5.29778 15.2141 5.15177 14.7662 4.83399 14.4534L0.403511 10.1591C0.032975 9.79958 -0.0958538 9.25972 0.0734641 8.77263C0.237874 8.28676 0.657488 7.93217 1.16421 7.85242L7.26211 6.9678C7.72589 6.91995 8.13324 6.63775 8.34182 6.22059L11.0288 0.711626C11.0926 0.588932 11.1748 0.476053 11.2742 0.380352L11.3846 0.294466C11.4423 0.230665 11.5086 0.177906 11.5822 0.134963L11.7159 0.0858859L11.9245 0H12.441C12.9024 0.0478507 13.3085 0.323912 13.5207 0.736165L16.2433 6.22059C16.4396 6.6218 16.8212 6.90032 17.2617 6.9678L23.3596 7.85242C23.8749 7.92604 24.3055 8.28185 24.4761 8.77263C24.6368 9.26463 24.4982 9.80448 24.1203 10.1591L19.5315 14.5024Z" fill="#FFD12D"/>
</svg>
